<svg width="34" height="35" viewBox="0 0 34 35" fill="none" xmlns="http://www.w3.org/2000/svg">
<mask id="mask0_2055_61" style="mask-type:luminance" maskUnits="userSpaceOnUse" x="0" y="0" width="34" height="35">
<path d="M34 0.0898438H0V34.0898H34V0.0898438Z" fill="white"/>
</mask>
<g mask="url(#mask0_2055_61)">
<path d="M30.759 15.6771L24.8898 14.6984C24.5466 14.141 23.8644 13.1327 22.8725 12.1225C20.8927 10.1062 18.6133 9.04053 16.2806 9.04053H6.7225C5.16993 9.04053 3.73044 9.87997 2.96577 11.2312L0.331898 15.886C0.327648 15.8935 0.324461 15.9013 0.32041 15.9089C0.116676 16.2735 0 16.6931 0 17.1397V22.0446C0 22.5947 0.445984 23.0406 0.99609 23.0406H4.18632C4.65455 24.2658 5.848 25.1392 7.24339 25.1392C8.63879 25.1392 9.8322 24.2658 10.3005 23.0406H22.672C23.1402 24.2658 24.3336 25.1392 25.729 25.1392C27.1244 25.1392 28.3178 24.2658 28.786 23.0406H33.0039C33.554 23.0406 34 22.5947 34 22.0446V19.4076C34 17.539 32.6077 15.938 30.759 15.6771ZM22.3976 14.608H15.222V11.0327H16.2806C19.104 11.0327 21.2363 13.12 22.3976 14.608ZM8.57371 11.0327H13.2299V14.608H8.57371V11.0327ZM4.69964 12.2123C5.08811 11.5258 5.80012 11.0851 6.58152 11.0375V14.608H3.34402L4.69964 12.2123ZM7.24339 23.147C6.53929 23.147 5.96647 22.5838 5.96647 21.8914C5.96647 21.1991 6.53929 20.6358 7.24339 20.6358C7.9475 20.6358 8.52032 21.1991 8.52032 21.8914C8.52032 22.5838 7.9475 23.147 7.24339 23.147ZM25.729 23.147C25.0248 23.147 24.452 22.5838 24.452 21.8914C24.452 21.1991 25.0249 20.6358 25.729 20.6358C26.4331 20.6358 27.0059 21.1991 27.0059 21.8914C27.0059 22.5838 26.4331 23.147 25.729 23.147ZM28.8857 21.0484C28.5111 19.6651 27.2381 18.6436 25.729 18.6436C24.2198 18.6436 22.9469 19.6651 22.5721 21.0484H10.4001C10.0255 19.6651 8.75254 18.6436 7.24339 18.6436C5.73425 18.6436 4.4613 19.6651 4.08657 21.0484H1.99219V17.1397C1.99219 16.8422 2.23417 16.6002 2.53167 16.6002H24.183L30.4445 17.6444C30.4541 17.646 30.4637 17.6475 30.4734 17.6488C30.6428 17.672 30.804 17.7193 30.9541 17.7865C30.5374 17.9057 30.232 18.2886 30.232 18.7436C30.232 19.2937 30.678 19.7397 31.2281 19.7397H32.0078V21.0485L28.8857 21.0484Z" fill="#050B20"/>
</g>
</svg>
