<svg width="16" height="16" viewBox="0 0 16 16" fill="none" xmlns="http://www.w3.org/2000/svg">
<path d="M7.45859 1.54009C6.42526 1.54009 5.48359 1.79009 4.63359 2.29009C3.78359 2.79009 3.10026 3.47342 2.58359 4.34009C2.06693 5.20675 1.80859 6.14842 1.80859 7.16509C1.80859 8.18175 2.06693 9.12342 2.58359 9.99009C3.10026 10.8568 3.78359 11.5401 4.63359 12.0401C5.48359 12.5401 6.42526 12.7901 7.45859 12.7901C8.09193 12.7901 8.70859 12.6818 9.30859 12.4651C9.90859 12.2484 10.4586 11.9568 10.9586 11.5901L13.3086 13.8901C13.4086 14.0234 13.5503 14.0901 13.7336 14.0901C13.9169 14.0901 14.0669 14.0318 14.1836 13.9151C14.3003 13.7984 14.3586 13.6484 14.3586 13.4651C14.3586 13.2818 14.2919 13.1401 14.1586 13.0401L11.8586 10.6901C12.2253 10.1901 12.5169 9.64009 12.7336 9.04009C12.9503 8.44009 13.0586 7.82342 13.0586 7.19009C13.0586 6.15675 12.8086 5.20675 12.3086 4.34009C11.8086 3.47342 11.1253 2.79009 10.2586 2.29009C9.39193 1.79009 8.45859 1.54009 7.45859 1.54009ZM7.45859 2.79009C8.25859 2.79009 8.99193 2.99009 9.65859 3.39009C10.3253 3.79009 10.8503 4.32342 11.2336 4.99009C11.6169 5.65675 11.8086 6.38175 11.8086 7.16509C11.8086 7.94842 11.6169 8.68175 11.2336 9.36509C10.8503 10.0484 10.3253 10.5818 9.65859 10.9651C8.99193 11.3484 8.25859 11.5401 7.45859 11.5401C6.65859 11.5401 5.92526 11.3484 5.25859 10.9651C4.59193 10.5818 4.05859 10.0484 3.65859 9.36509C3.25859 8.68175 3.05859 7.94842 3.05859 7.16509C3.05859 6.38175 3.25859 5.65675 3.65859 4.99009C4.05859 4.32342 4.59193 3.79009 5.25859 3.39009C5.92526 2.99009 6.65859 2.79009 7.45859 2.79009Z" fill="white"/>
</svg>
