<svg width="15" height="15" viewBox="0 0 15 15" fill="none" xmlns="http://www.w3.org/2000/svg">
<path d="M14.5506 0.47998H5.99503C5.78007 0.47998 5.60613 0.653923 5.60613 0.868881C5.60613 1.08384 5.78007 1.25778 5.99503 1.25778H13.6118L1.05339 13.8162C0.901473 13.9681 0.901473 14.2142 1.05339 14.3661C1.12934 14.442 1.22887 14.48 1.32836 14.48C1.42786 14.48 1.52735 14.442 1.60333 14.3661L14.1617 1.80768V9.42445C14.1617 9.63941 14.3356 9.81335 14.5506 9.81335C14.7656 9.81335 14.9395 9.63941 14.9395 9.42445V0.868881C14.9395 0.653923 14.7655 0.47998 14.5506 0.47998Z" fill="white"/>
</svg>
