<svg width="15" height="15" viewBox="0 0 15 15" fill="none" xmlns="http://www.w3.org/2000/svg">
<path d="M13.8416 0.22998H5.28604C5.07108 0.22998 4.89714 0.403923 4.89714 0.618881C4.89714 0.833839 5.07108 1.00778 5.28604 1.00778H12.9028L0.34441 13.5662C0.192488 13.7181 0.192488 13.9642 0.34441 14.1161C0.420353 14.192 0.519884 14.23 0.619379 14.23C0.718874 14.23 0.818369 14.192 0.894348 14.1161L13.4527 1.55768V9.17445C13.4527 9.38941 13.6266 9.56335 13.8416 9.56335C14.0566 9.56335 14.2305 9.38941 14.2305 9.17445V0.618881C14.2305 0.403923 14.0565 0.22998 13.8416 0.22998Z" fill="#405FF2"/>
</svg>
